<svg width="43" height="43" viewBox="0 0 43 43" fill="none" xmlns="http://www.w3.org/2000/svg">
<path d="M11.081 35.4491L11.081 10.9688L20.1891 10.9688C26.0572 10.9688 29.6932 13.9928 29.6932 18.9969C29.6932 24.1449 26.0212 27.097 20.2611 27.097L15.941 27.097L15.941 35.4491H11.081ZM20.1171 14.8208H15.941V23.2449L20.0091 23.2449C23.1051 23.2449 24.7252 21.5889 24.7252 19.0329C24.7252 16.4768 23.0691 14.8208 20.1171 14.8208Z" fill="#212529"/>
<path fill-rule="evenodd" clip-rule="evenodd" d="M14.3667 11.4491H11.4822V16.2376L11.1243 15.6242L10.0803 17.3522L5.11226 24.4803L0.000188828 24.4803L8.60431 11.8442L0.612196 0L6.22827 0L10.5483 6.08408L11.6643 7.99211L12.7804 6.08408L17.0284 0L22.1045 0L14.3667 11.4491Z" fill="#212529"/>
<rect x="22.6689" y="33.4491" width="20" height="2" fill="#212529"/>
</svg>
