<svg width="120" height="121" viewBox="0 0 120 121" fill="none" xmlns="http://www.w3.org/2000/svg">
<path fill-rule="evenodd" clip-rule="evenodd" d="M82.9312 10.1605C81.06 10.0976 79.1013 10.4238 77.1375 11.0605C73.2099 12.3339 69.0941 14.8153 64.8703 18.2511C63.215 19.5976 61.5447 21.1368 59.8687 22.7699C58.2297 21.1783 56.5938 19.6804 54.975 18.3636C50.7546 14.9306 46.65 12.4482 42.7312 11.1777C38.8125 9.90722 34.9133 9.86785 31.7109 11.7168C28.5085 13.5657 26.5935 16.9597 25.7344 20.9886C24.8753 25.0176 24.9699 29.8156 25.8328 35.1871C26.1325 37.0528 26.56 39.0102 27.0469 41.0043C25.217 41.5588 23.44 42.1419 21.7922 42.7855C16.8191 44.7279 12.7043 47.0516 9.7078 49.8168C6.71134 52.5819 4.77655 55.9379 4.77655 59.623C4.77655 63.3081 6.71134 66.6594 9.7078 69.4246C12.7043 72.1897 16.8191 74.5182 21.7922 76.4605C23.5542 77.1487 25.4619 77.7684 27.4312 78.3542C26.7229 81.0011 26.1489 83.5695 25.7578 86.0042C24.8942 91.38 24.803 96.1786 25.6641 100.217C26.5251 104.255 28.4411 107.668 31.6594 109.526C34.8776 111.384 38.7942 111.339 42.7219 110.065C46.6495 108.792 50.7606 106.315 54.9844 102.879C56.6244 101.545 58.2834 100.023 59.9437 98.4074C61.6128 100.033 63.2784 101.562 64.9266 102.903C69.1469 106.336 73.2562 108.813 77.175 110.084C81.0937 111.354 84.9929 111.394 88.1953 109.545C91.3977 107.696 93.3081 104.302 94.1672 100.273C95.0263 96.244 94.9316 91.4507 94.0687 86.0792C93.6766 83.6379 93.1023 81.0609 92.3906 78.4058C94.425 77.8057 96.393 77.1693 98.2078 76.4605C103.181 74.5182 107.296 72.1897 110.292 69.4246C113.289 66.6594 115.223 63.3081 115.223 59.623C115.223 55.9379 113.289 52.5819 110.292 49.8168C107.296 47.0516 103.181 44.7279 98.2078 42.7855C96.5363 42.1327 94.732 41.542 92.8734 40.9808C93.3643 38.9745 93.8 37.0031 94.1016 35.1261C94.9652 29.7503 95.0564 24.9471 94.1953 20.9089C93.3343 16.8708 91.4135 13.4623 88.1953 11.6043C86.5862 10.6752 84.8025 10.2234 82.9312 10.1605ZM82.7109 15.0449C83.8852 15.077 84.8869 15.3564 85.7437 15.8511C87.4575 16.8406 88.7242 18.7662 89.4 21.9355C90.0758 25.1048 90.0524 29.3868 89.2547 34.3527C88.9815 36.0529 88.585 37.8549 88.1344 39.7011C83.2252 38.5197 77.8458 37.643 72.1125 37.1277C69.2343 33.1404 66.277 29.5079 63.2953 26.2855C64.8724 24.746 66.4393 23.3061 67.9687 22.0621C71.8705 18.8882 75.5643 16.7286 78.6469 15.7293C80.1882 15.2296 81.5367 15.0128 82.7109 15.0449ZM37.1672 15.0589C38.3482 15.026 39.6996 15.2422 41.2453 15.7433C44.3368 16.7456 48.0371 18.9042 51.9422 22.0808C53.4409 23.2999 54.9727 24.7124 56.5172 26.2152C53.5135 29.4639 50.5317 33.1279 47.6344 37.1511C41.9253 37.6758 36.5678 38.5572 31.6828 39.7433C31.2356 37.9073 30.8389 36.1146 30.5672 34.423C29.7687 29.4528 29.7488 25.1702 30.4266 21.9918C31.1043 18.8133 32.3814 16.8731 34.1109 15.8746C34.9757 15.3753 35.9862 15.0919 37.1672 15.0589ZM59.9437 29.7402C61.8988 31.8678 63.8543 34.196 65.7937 36.7011C63.8881 36.6217 61.9591 36.5746 60 36.5746C58.0019 36.5746 56.0362 36.6232 54.0937 36.7058C56.0336 34.1987 57.9882 31.8694 59.9437 29.7402ZM60 41.4214C63.2637 41.4214 66.4448 41.5556 69.5391 41.7824C71.6681 44.8403 73.7487 48.0845 75.7312 51.5183C77.4732 54.5355 79.0496 57.548 80.4844 60.523C79.0344 63.5375 77.4316 66.5907 75.6656 69.6496C74.1111 72.3421 72.4876 74.8995 70.8375 77.3652C67.3423 77.6573 63.7207 77.8199 60 77.8199C56.1897 77.8199 52.4867 77.6477 48.9141 77.3418C47.2914 74.9115 45.6954 72.3929 44.1656 69.7433C42.4036 66.6915 40.8086 63.6438 39.3609 60.6355C40.8146 57.6102 42.4169 54.5456 44.1891 51.4761C46.1612 48.0603 48.2357 44.8349 50.3531 41.7918C53.4807 41.5598 56.6987 41.4214 60 41.4214ZM75.7172 42.3824C79.6735 42.876 83.3882 43.5614 86.8453 44.3839C85.8195 47.7467 84.556 51.2591 83.025 54.8839C82.031 52.9677 81.0014 51.045 79.8891 49.1183C78.541 46.7834 77.137 44.5574 75.7172 42.3824ZM44.025 42.4199C42.6352 44.5542 41.2676 46.737 39.9469 49.0246C38.8202 50.976 37.7693 52.9246 36.7641 54.8652C35.2463 51.2622 33.9904 47.7697 32.9719 44.4261C36.4032 43.6021 40.0962 42.9192 44.025 42.4199ZM91.5937 45.6589C93.2951 46.1737 94.9381 46.7109 96.4453 47.2996C101.03 49.0901 104.656 51.2104 107.006 53.3793C109.357 55.5481 110.377 57.6165 110.377 59.623C110.377 61.6295 109.357 63.6979 107.006 65.8668C104.656 68.0356 101.03 70.1559 96.4453 71.9464C94.7705 72.6006 92.9303 73.1938 91.0172 73.7558C89.6525 69.5347 87.9106 65.1311 85.8375 60.6355C88.2211 55.4742 90.1466 50.4419 91.5937 45.6589ZM28.3266 45.6824C29.7571 50.4176 31.6579 55.3999 34.0078 60.5089C31.9211 65.0307 30.1706 69.4594 28.8 73.7043C26.9543 73.157 25.1765 72.5799 23.5547 71.9464C18.9703 70.1559 15.344 68.0356 12.9937 65.8668C10.6434 63.6979 9.62343 61.6295 9.62343 59.623C9.62343 57.6165 10.6434 55.5481 12.9937 53.3793C15.344 51.2104 18.9703 49.0901 23.5547 47.2996C25.0386 46.72 26.6542 46.1904 28.3266 45.6824ZM60 48.598C53.401 48.598 48 53.999 48 60.598C48 67.197 53.401 72.598 60 72.598C66.599 72.598 72 67.197 72 60.598C72 53.999 66.599 48.598 60 48.598ZM36.8203 66.2746C37.83 68.2248 38.8801 70.1819 40.0125 72.1433C40.8985 73.6779 41.8034 75.1717 42.7219 76.6386C39.4987 76.1917 36.4349 75.6259 33.5578 74.9558C34.4728 72.1535 35.5674 69.2447 36.8203 66.2746ZM83.0859 66.2746C84.3439 69.2517 85.439 72.1652 86.3578 74.9746C83.4715 75.6438 80.3983 76.2077 77.1656 76.6527C78.0962 75.1679 79.0151 73.6554 79.9125 72.1011C81.0366 70.1541 82.0826 68.2106 83.0859 66.2746ZM32.175 79.6152C36.5186 80.6442 41.2265 81.4346 46.2187 81.9496C49.5513 86.7697 53.0231 91.1008 56.5172 94.8871C54.9547 96.4105 53.4061 97.8402 51.8906 99.073C47.9889 102.247 44.2904 104.402 41.2078 105.401C38.1252 106.401 35.8247 106.269 34.1109 105.279C32.3972 104.29 31.1352 102.364 30.4594 99.1949C29.7836 96.0256 29.8022 91.7483 30.6 86.7824C30.9619 84.5296 31.5027 82.1173 32.175 79.6152ZM87.7453 79.6339C88.4232 82.1513 88.9656 84.5724 89.3297 86.8386C90.1281 91.8088 90.148 96.0915 89.4703 99.2699C88.7926 102.448 87.5249 104.393 85.7953 105.392C84.0657 106.39 81.743 106.521 78.6516 105.518C75.5601 104.516 71.8598 102.357 67.9547 99.1808C66.4282 97.9391 64.8689 96.4978 63.2953 94.9621C66.8128 91.161 70.3091 86.8078 73.6641 81.9589C78.6689 81.4474 83.3899 80.6617 87.7453 79.6339ZM52.4812 82.4417C54.9455 82.576 57.4422 82.6667 60 82.6667C62.4732 82.6667 64.8889 82.5815 67.275 82.4558C64.8359 85.7466 62.3497 88.7384 59.8734 91.4324C57.3987 88.7326 54.9171 85.7355 52.4812 82.4417Z" fill="white"/>
</svg>
